<svg width="45" height="45" viewBox="0 0 45 45" fill="none" xmlns="http://www.w3.org/2000/svg">
<path d="M35.1562 19.9336V15.75C35.1562 15.0041 34.8599 14.2887 34.3325 13.7613C33.805 13.2338 33.0897 12.9375 32.3438 12.9375H23.9062V11.0925C24.3352 10.7072 24.6094 10.1531 24.6094 9.53155C24.6094 8.97211 24.3871 8.43559 23.9916 8.04C23.596 7.64442 23.0594 7.42218 22.5 7.42218C21.9406 7.42218 21.404 7.64442 21.0084 8.04C20.6129 8.43559 20.3906 8.97211 20.3906 9.53155C20.3906 10.1531 20.6648 10.7072 21.0938 11.0925V12.9375H12.6563C11.9103 12.9375 11.195 13.2338 10.6675 13.7613C10.1401 14.2887 9.84375 15.0041 9.84375 15.75V19.9659L9.7425 19.973C9.38797 19.9982 9.05619 20.1569 8.81402 20.4171C8.57186 20.6773 8.43731 21.0196 8.4375 21.375V24.1875C8.4375 24.5605 8.58566 24.9181 8.84938 25.1819C9.1131 25.4456 9.47079 25.5937 9.84375 25.5937V32.625C9.84375 33.3709 10.1401 34.0863 10.6675 34.6137C11.195 35.1412 11.9103 35.4375 12.6563 35.4375H32.3438C33.0897 35.4375 33.805 35.1412 34.3325 34.6137C34.8599 34.0863 35.1562 33.3709 35.1562 32.625V25.5937C35.5292 25.5937 35.8869 25.4456 36.1506 25.1819C36.4143 24.9181 36.5625 24.5605 36.5625 24.1875V21.4622C36.5788 21.2439 36.5441 21.0249 36.4612 20.8223C36.1772 20.1361 35.5683 19.9716 35.1562 19.9336ZM15.4688 21.375C15.4688 19.8225 16.4138 18.5625 17.5781 18.5625C18.7425 18.5625 19.6875 19.8225 19.6875 21.375C19.6875 22.9275 18.7425 24.1875 17.5781 24.1875C16.4138 24.1875 15.4688 22.9275 15.4688 21.375ZM28.1222 29.8125C26.7145 29.8083 16.875 29.8125 16.875 29.8125V27C16.875 27 26.7202 26.9972 28.1278 27L28.1222 29.8125ZM27.4219 24.1875C26.2575 24.1875 25.3125 22.9275 25.3125 21.375C25.3125 19.8225 26.2575 18.5625 27.4219 18.5625C28.5863 18.5625 29.5312 19.8225 29.5312 21.375C29.5312 22.9275 28.5863 24.1875 27.4219 24.1875Z" fill="#ECF4FF"/>
<circle cx="22.5" cy="22.5" r="22" stroke="white"/>
</svg>
